<svg width="187" height="132" viewBox="0 0 187 132" fill="none" xmlns="http://www.w3.org/2000/svg">
<path d="M55.8227 107.4C56.2707 107.4 56.7234 107.442 57.1807 107.526C57.638 107.61 58.002 107.732 58.2727 107.89C58.3567 107.928 58.408 107.97 58.4267 108.016C58.4547 108.054 58.4734 108.124 58.4827 108.226L58.6367 109.794C58.6367 109.822 58.6134 109.841 58.5667 109.85C58.52 109.85 58.492 109.836 58.4827 109.808C58.2774 109.09 57.8947 108.562 57.3347 108.226C56.784 107.881 56.098 107.708 55.2767 107.708C54.5674 107.708 53.9467 107.867 53.4147 108.184C52.8827 108.492 52.472 108.931 52.1827 109.5C51.8934 110.07 51.7487 110.728 51.7487 111.474C51.7487 112.342 51.926 113.145 52.2807 113.882C52.6447 114.62 53.13 115.203 53.7367 115.632C54.3527 116.062 55.0154 116.276 55.7247 116.276C56.3967 116.276 56.98 116.094 57.4747 115.73C57.9694 115.357 58.3474 114.788 58.6087 114.022C58.6087 113.994 58.6274 113.98 58.6647 113.98C58.6927 113.98 58.716 113.985 58.7347 113.994C58.7627 114.004 58.7767 114.018 58.7767 114.036L58.5807 115.618C58.562 115.73 58.5387 115.805 58.5107 115.842C58.492 115.87 58.4407 115.903 58.3567 115.94C57.5167 116.295 56.63 116.472 55.6967 116.472C54.5767 116.472 53.6387 116.248 52.8827 115.8C52.136 115.343 51.5854 114.764 51.2307 114.064C50.876 113.364 50.6987 112.627 50.6987 111.852C50.6987 110.994 50.9367 110.224 51.4127 109.542C51.8887 108.861 52.5187 108.334 53.3027 107.96C54.0867 107.587 54.9267 107.4 55.8227 107.4ZM64.5019 116.472C63.6339 116.472 62.8593 116.272 62.1779 115.87C61.5059 115.46 60.9833 114.909 60.6099 114.218C60.2459 113.518 60.0639 112.758 60.0639 111.936C60.0639 110.975 60.3066 110.154 60.7919 109.472C61.2773 108.782 61.8979 108.264 62.6539 107.918C63.4193 107.573 64.1986 107.4 64.9919 107.4C65.8786 107.4 66.6579 107.61 67.3299 108.03C68.0019 108.441 68.5153 108.987 68.8699 109.668C69.2339 110.35 69.4159 111.073 69.4159 111.838C69.4159 112.688 69.1919 113.467 68.7439 114.176C68.2959 114.886 67.6939 115.446 66.9379 115.856C66.1913 116.267 65.3793 116.472 64.5019 116.472ZM64.9919 116.178C65.6266 116.178 66.1959 116.024 66.6999 115.716C67.2133 115.408 67.6146 114.956 67.9039 114.358C68.2026 113.761 68.3519 113.052 68.3519 112.23C68.3519 111.353 68.1886 110.574 67.8619 109.892C67.5353 109.211 67.0733 108.679 66.4759 108.296C65.8879 107.914 65.1973 107.722 64.4039 107.722C63.3773 107.722 62.5746 108.054 61.9959 108.716C61.4173 109.379 61.1279 110.289 61.1279 111.446C61.1279 112.324 61.2913 113.126 61.6179 113.854C61.9446 114.573 62.4019 115.142 62.9899 115.562C63.5779 115.973 64.2453 116.178 64.9919 116.178ZM81.4647 116.136C81.4927 116.136 81.5067 116.164 81.5067 116.22C81.5067 116.276 81.4927 116.304 81.4647 116.304C81.1753 116.304 80.9467 116.3 80.7787 116.29L79.8127 116.276L78.9167 116.29C78.7673 116.3 78.5573 116.304 78.2867 116.304C78.268 116.304 78.2587 116.276 78.2587 116.22C78.2587 116.164 78.268 116.136 78.2867 116.136C78.604 116.136 78.8373 116.113 78.9867 116.066C79.1453 116.01 79.248 115.917 79.2947 115.786C79.3507 115.656 79.3693 115.45 79.3507 115.17L79.0987 108.8L75.9067 116.206C75.888 116.244 75.8507 116.262 75.7947 116.262C75.748 116.262 75.706 116.244 75.6687 116.206L72.2247 108.884L72.0987 114.778C72.0893 115.273 72.1733 115.623 72.3507 115.828C72.528 116.034 72.8407 116.136 73.2887 116.136C73.3073 116.136 73.3167 116.164 73.3167 116.22C73.3167 116.276 73.3073 116.304 73.2887 116.304C73.0273 116.304 72.8267 116.3 72.6867 116.29L71.9307 116.276L71.2027 116.29C71.072 116.3 70.8853 116.304 70.6427 116.304C70.624 116.304 70.6147 116.276 70.6147 116.22C70.6147 116.164 70.624 116.136 70.6427 116.136C71.0347 116.136 71.3147 116.034 71.4827 115.828C71.66 115.614 71.7533 115.264 71.7627 114.778L71.8887 108.282C71.6087 107.909 71.226 107.722 70.7407 107.722C70.722 107.722 70.7127 107.694 70.7127 107.638C70.7127 107.582 70.722 107.554 70.7407 107.554L71.2587 107.568C71.352 107.578 71.4827 107.582 71.6507 107.582C71.8187 107.582 71.9587 107.578 72.0707 107.568C72.192 107.559 72.2853 107.554 72.3507 107.554C72.472 107.554 72.57 107.601 72.6447 107.694C72.7287 107.778 72.8453 107.974 72.9947 108.282L76.1167 114.862L79.1687 107.904C79.2713 107.671 79.4113 107.554 79.5887 107.554C79.6353 107.554 79.7007 107.559 79.7847 107.568C79.878 107.578 79.9993 107.582 80.1487 107.582L80.8067 107.568C80.9093 107.559 81.0633 107.554 81.2687 107.554C81.2967 107.554 81.3107 107.582 81.3107 107.638C81.3107 107.694 81.2967 107.722 81.2687 107.722C80.802 107.722 80.466 107.792 80.2607 107.932C80.0647 108.063 79.9713 108.315 79.9807 108.688L80.2607 115.17C80.27 115.46 80.3027 115.67 80.3587 115.8C80.424 115.931 80.536 116.02 80.6947 116.066C80.8533 116.113 81.11 116.136 81.4647 116.136ZM84.4878 115.114C84.4878 115.413 84.5251 115.632 84.5998 115.772C84.6838 115.903 84.8378 115.996 85.0618 116.052C85.2951 116.108 85.6591 116.136 86.1538 116.136C86.1818 116.136 86.1958 116.164 86.1958 116.22C86.1958 116.276 86.1818 116.304 86.1538 116.304C85.7711 116.304 85.4725 116.3 85.2578 116.29L84.0398 116.276L83.1018 116.29C82.9245 116.3 82.6865 116.304 82.3878 116.304C82.3691 116.304 82.3598 116.276 82.3598 116.22C82.3598 116.164 82.3691 116.136 82.3878 116.136C82.7425 116.136 82.9991 116.113 83.1578 116.066C83.3258 116.02 83.4378 115.931 83.4938 115.8C83.5498 115.66 83.5778 115.45 83.5778 115.17V108.688C83.5778 108.408 83.5498 108.203 83.4938 108.072C83.4378 107.942 83.3258 107.853 83.1578 107.806C82.9991 107.75 82.7425 107.722 82.3878 107.722C82.3691 107.722 82.3598 107.694 82.3598 107.638C82.3598 107.582 82.3691 107.554 82.3878 107.554L83.0878 107.568C83.4798 107.587 83.7925 107.596 84.0258 107.596C84.2591 107.596 84.5205 107.582 84.8098 107.554C84.9218 107.554 85.0991 107.55 85.3418 107.54C85.5845 107.522 85.7945 107.512 85.9718 107.512C86.8305 107.512 87.5165 107.704 88.0298 108.086C88.5525 108.469 88.8138 109.052 88.8138 109.836C88.8138 110.452 88.6598 110.97 88.3518 111.39C88.0531 111.81 87.6658 112.123 87.1898 112.328C86.7138 112.534 86.2238 112.636 85.7198 112.636C85.4491 112.636 85.2251 112.613 85.0478 112.566C85.0198 112.566 85.0058 112.543 85.0058 112.496C85.0058 112.468 85.0105 112.44 85.0198 112.412C85.0385 112.384 85.0571 112.375 85.0758 112.384C85.2251 112.422 85.3931 112.44 85.5798 112.44C86.1958 112.44 86.7138 112.24 87.1338 111.838C87.5631 111.437 87.7778 110.858 87.7778 110.102C87.7778 109.365 87.5771 108.786 87.1758 108.366C86.7745 107.937 86.2611 107.722 85.6358 107.722C85.2998 107.722 85.0571 107.741 84.9078 107.778C84.7585 107.816 84.6511 107.904 84.5858 108.044C84.5205 108.175 84.4878 108.399 84.4878 108.716V115.114ZM98.5585 116.136C98.5958 116.136 98.6145 116.164 98.6145 116.22C98.6145 116.276 98.5958 116.304 98.5585 116.304C98.3811 116.304 98.1058 116.295 97.7325 116.276C97.3591 116.258 97.0885 116.248 96.9205 116.248C96.7151 116.248 96.4538 116.258 96.1365 116.276C95.8378 116.295 95.6091 116.304 95.4505 116.304C95.4131 116.304 95.3945 116.276 95.3945 116.22C95.3945 116.164 95.4131 116.136 95.4505 116.136C95.7958 116.136 96.0478 116.104 96.2065 116.038C96.3651 115.973 96.4445 115.861 96.4445 115.702C96.4445 115.572 96.3838 115.371 96.2625 115.1L94.6525 111.67H92.0065L90.8025 114.526C90.6718 114.844 90.6065 115.105 90.6065 115.31C90.6065 115.861 91.0638 116.136 91.9785 116.136C92.0251 116.136 92.0485 116.164 92.0485 116.22C92.0485 116.276 92.0251 116.304 91.9785 116.304C91.8105 116.304 91.5678 116.295 91.2505 116.276C90.8958 116.258 90.5878 116.248 90.3265 116.248C90.0838 116.248 89.8038 116.258 89.4865 116.276C89.2065 116.295 88.9731 116.304 88.7865 116.304C88.7398 116.304 88.7165 116.276 88.7165 116.22C88.7165 116.164 88.7398 116.136 88.7865 116.136C89.0478 116.136 89.2671 116.09 89.4445 115.996C89.6311 115.894 89.8038 115.721 89.9625 115.478C90.1305 115.226 90.3125 114.867 90.5085 114.4L93.4625 107.428C93.4811 107.4 93.5138 107.386 93.5605 107.386C93.6071 107.386 93.6351 107.4 93.6445 107.428L96.9485 114.386C97.2658 115.077 97.5365 115.544 97.7605 115.786C97.9845 116.02 98.2505 116.136 98.5585 116.136ZM92.1325 111.376H94.5125L93.2525 108.716L92.1325 111.376ZM108.459 107.554C108.487 107.554 108.501 107.582 108.501 107.638C108.501 107.694 108.487 107.722 108.459 107.722C108.067 107.722 107.782 107.83 107.605 108.044C107.427 108.259 107.339 108.609 107.339 109.094V116.472C107.339 116.491 107.315 116.505 107.269 116.514C107.222 116.524 107.189 116.519 107.171 116.5L100.731 108.702L100.605 108.562V114.778C100.605 115.264 100.689 115.614 100.857 115.828C101.034 116.034 101.314 116.136 101.697 116.136C101.725 116.136 101.739 116.164 101.739 116.22C101.739 116.276 101.725 116.304 101.697 116.304C101.463 116.304 101.286 116.3 101.165 116.29L100.465 116.276L99.7505 116.29C99.6199 116.3 99.4285 116.304 99.1765 116.304C99.1579 116.304 99.1485 116.276 99.1485 116.22C99.1485 116.164 99.1579 116.136 99.1765 116.136C99.5779 116.136 99.8625 116.034 100.031 115.828C100.199 115.614 100.283 115.264 100.283 114.778V108.226C99.9185 107.89 99.5499 107.722 99.1765 107.722C99.1485 107.722 99.1345 107.694 99.1345 107.638C99.1345 107.582 99.1485 107.554 99.1765 107.554L99.6945 107.568C99.8065 107.578 99.9605 107.582 100.157 107.582C100.362 107.582 100.53 107.578 100.661 107.568C100.791 107.559 100.894 107.554 100.969 107.554C101.043 107.554 101.095 107.573 101.123 107.61C101.16 107.638 101.216 107.708 101.291 107.82C101.403 107.988 101.515 108.142 101.627 108.282L107.017 114.904V109.094C107.017 108.609 106.933 108.259 106.765 108.044C106.606 107.83 106.335 107.722 105.953 107.722C105.934 107.722 105.925 107.694 105.925 107.638C105.925 107.582 105.934 107.554 105.953 107.554L106.499 107.568C106.779 107.587 107.007 107.596 107.185 107.596C107.353 107.596 107.586 107.587 107.885 107.568L108.459 107.554ZM111.56 115.17C111.56 115.45 111.588 115.66 111.644 115.8C111.7 115.931 111.808 116.02 111.966 116.066C112.134 116.113 112.396 116.136 112.75 116.136C112.778 116.136 112.792 116.164 112.792 116.22C112.792 116.276 112.778 116.304 112.75 116.304C112.47 116.304 112.246 116.3 112.078 116.29L111.084 116.276L110.118 116.29C109.95 116.3 109.722 116.304 109.432 116.304C109.404 116.304 109.39 116.276 109.39 116.22C109.39 116.164 109.404 116.136 109.432 116.136C109.787 116.136 110.044 116.113 110.202 116.066C110.37 116.02 110.482 115.931 110.538 115.8C110.604 115.66 110.636 115.45 110.636 115.17V108.688C110.636 108.408 110.604 108.203 110.538 108.072C110.482 107.942 110.37 107.853 110.202 107.806C110.044 107.75 109.787 107.722 109.432 107.722C109.404 107.722 109.39 107.694 109.39 107.638C109.39 107.582 109.404 107.554 109.432 107.554L110.118 107.568C110.51 107.587 110.832 107.596 111.084 107.596C111.364 107.596 111.7 107.587 112.092 107.568L112.75 107.554C112.778 107.554 112.792 107.582 112.792 107.638C112.792 107.694 112.778 107.722 112.75 107.722C112.405 107.722 112.148 107.75 111.98 107.806C111.822 107.862 111.71 107.96 111.644 108.1C111.588 108.231 111.56 108.436 111.56 108.716V115.17ZM120.073 114.218C120.073 114.2 120.092 114.19 120.129 114.19C120.157 114.19 120.18 114.195 120.199 114.204C120.227 114.214 120.241 114.228 120.241 114.246C120.157 114.834 120.115 115.45 120.115 116.094C120.115 116.169 120.096 116.225 120.059 116.262C120.031 116.29 119.975 116.304 119.891 116.304H114.025C114.006 116.304 113.997 116.276 113.997 116.22C113.997 116.164 114.006 116.136 114.025 116.136C114.38 116.136 114.636 116.113 114.795 116.066C114.963 116.02 115.075 115.931 115.131 115.8C115.196 115.66 115.229 115.45 115.229 115.17V108.688C115.229 108.408 115.196 108.203 115.131 108.072C115.075 107.942 114.963 107.853 114.795 107.806C114.636 107.75 114.38 107.722 114.025 107.722C114.006 107.722 113.997 107.694 113.997 107.638C113.997 107.582 114.006 107.554 114.025 107.554H119.653C119.737 107.554 119.779 107.596 119.779 107.68L119.807 109.402C119.807 109.43 119.784 109.449 119.737 109.458C119.69 109.458 119.662 109.444 119.653 109.416C119.625 108.922 119.476 108.539 119.205 108.268C118.934 107.988 118.575 107.848 118.127 107.848H117.273C116.946 107.848 116.704 107.876 116.545 107.932C116.396 107.979 116.288 108.068 116.223 108.198C116.167 108.32 116.139 108.506 116.139 108.758V111.6H117.847C118.295 111.6 118.612 111.526 118.799 111.376C118.995 111.227 119.093 110.975 119.093 110.62C119.093 110.602 119.121 110.592 119.177 110.592C119.233 110.592 119.261 110.602 119.261 110.62L119.247 111.754C119.247 112.025 119.252 112.23 119.261 112.37L119.275 113.042C119.275 113.061 119.247 113.07 119.191 113.07C119.135 113.07 119.107 113.061 119.107 113.042C119.107 112.632 119.004 112.338 118.799 112.16C118.603 111.983 118.272 111.894 117.805 111.894H116.139V115.114C116.139 115.376 116.167 115.567 116.223 115.688C116.279 115.81 116.382 115.894 116.531 115.94C116.68 115.987 116.914 116.01 117.231 116.01H118.351C118.799 116.01 119.172 115.852 119.471 115.534C119.77 115.217 119.97 114.778 120.073 114.218ZM122.972 109.192C122.972 109.556 123.061 109.874 123.238 110.144C123.416 110.415 123.63 110.644 123.882 110.83C124.134 111.008 124.489 111.236 124.946 111.516C125.432 111.806 125.81 112.048 126.08 112.244C126.351 112.44 126.58 112.692 126.766 113C126.962 113.299 127.06 113.658 127.06 114.078C127.06 114.526 126.948 114.932 126.724 115.296C126.5 115.66 126.169 115.95 125.73 116.164C125.301 116.37 124.783 116.472 124.176 116.472C123.458 116.472 122.8 116.309 122.202 115.982C122.156 115.954 122.123 115.922 122.104 115.884C122.095 115.847 122.086 115.791 122.076 115.716L121.894 113.812C121.885 113.775 121.904 113.752 121.95 113.742C122.006 113.733 122.039 113.747 122.048 113.784C122.198 114.456 122.473 115.035 122.874 115.52C123.285 116.006 123.826 116.248 124.498 116.248C124.965 116.248 125.357 116.122 125.674 115.87C126.001 115.609 126.164 115.198 126.164 114.638C126.164 114.218 126.071 113.854 125.884 113.546C125.698 113.238 125.469 112.986 125.198 112.79C124.937 112.585 124.578 112.347 124.12 112.076C123.672 111.806 123.318 111.572 123.056 111.376C122.804 111.18 122.59 110.933 122.412 110.634C122.235 110.336 122.146 109.986 122.146 109.584C122.146 109.118 122.268 108.721 122.51 108.394C122.762 108.058 123.084 107.811 123.476 107.652C123.878 107.484 124.302 107.4 124.75 107.4C125.301 107.4 125.847 107.512 126.388 107.736C126.528 107.783 126.598 107.862 126.598 107.974L126.696 109.584C126.696 109.622 126.673 109.64 126.626 109.64C126.58 109.64 126.552 109.622 126.542 109.584C126.468 109.099 126.267 108.651 125.94 108.24C125.614 107.82 125.142 107.61 124.526 107.61C124.004 107.61 123.612 107.764 123.35 108.072C123.098 108.371 122.972 108.744 122.972 109.192Z" fill="black"/>
<path d="M70.1641 72.6433H65.084V21.9768C65.084 19.18 67.3599 16.9102 70.1641 16.9102V72.6433Z" fill="#1F1F1F"/>
<path d="M80.3243 72.6433H75.2441V16.9102C78.0484 16.9102 80.3243 19.18 80.3243 21.9768V72.6433Z" fill="#1F1F1F"/>
<path d="M108.29 72.6433H103.21V21.9768C103.21 19.18 105.486 16.9102 108.29 16.9102V72.6433Z" fill="#1F1F1F"/>
<path d="M118.45 72.6433H113.37V16.9102C116.174 16.9102 118.45 19.18 118.45 21.9768V72.6433Z" fill="#1F1F1F"/>
<path d="M74.5266 46.9113C65.5116 47.1973 56.4857 47.4718 47.4707 47.7578C53.7801 45.3325 63.0441 42.4725 74.5266 41.3628" fill="#1F1F1F"/>
<path d="M81.0615 41.0816C82.9835 41.0269 84.9348 40.9941 86.9301 40.9941C98.4765 40.9941 116.42 42.0217 136.813 47.5531C120.19 47.1924 103.553 46.8207 86.9301 46.46C84.9788 46.5037 83.0275 46.5474 81.0615 46.5912" fill="#1F1F1F"/>
<path d="M18.85 99.1167C18.902 99.1167 18.928 99.1687 18.928 99.2727C18.928 99.3767 18.902 99.4287 18.85 99.4287C18.2953 99.4287 17.8533 99.42 17.524 99.4027L15.652 99.3767L13.598 99.4027C13.3033 99.42 12.896 99.4287 12.376 99.4287C12.324 99.4287 12.298 99.3767 12.298 99.2727C12.298 99.1687 12.324 99.1167 12.376 99.1167C13.0347 99.1167 13.52 99.0734 13.832 98.9867C14.144 98.9 14.352 98.7354 14.456 98.4927C14.56 98.2327 14.612 97.8427 14.612 97.3227V91.2647H5.148V97.3227C5.148 97.8427 5.2 98.2327 5.304 98.4927C5.408 98.7354 5.616 98.9 5.928 98.9867C6.24 99.0734 6.72533 99.1167 7.384 99.1167C7.41867 99.1167 7.436 99.1687 7.436 99.2727C7.436 99.3767 7.41867 99.4287 7.384 99.4287C6.82933 99.4287 6.38733 99.42 6.058 99.4027L4.056 99.3767L2.21 99.4027C1.88067 99.42 1.43 99.4287 0.858 99.4287C0.823333 99.4287 0.806 99.3767 0.806 99.2727C0.806 99.1687 0.823333 99.1167 0.858 99.1167C1.49933 99.1167 1.96733 99.0734 2.262 98.9867C2.574 98.9 2.782 98.7354 2.886 98.4927C3.00733 98.2327 3.068 97.8427 3.068 97.3227V85.2847C3.068 84.7647 3.016 84.3834 2.912 84.1407C2.808 83.898 2.60867 83.7334 2.314 83.6467C2.01933 83.5427 1.55133 83.4907 0.91 83.4907C0.858 83.4907 0.832 83.4387 0.832 83.3347C0.832 83.2307 0.858 83.1787 0.91 83.1787L2.236 83.2047C2.964 83.2394 3.57067 83.2567 4.056 83.2567C4.61067 83.2567 5.28667 83.2394 6.084 83.2047L7.384 83.1787C7.41867 83.1787 7.436 83.2307 7.436 83.3347C7.436 83.4387 7.41867 83.4907 7.384 83.4907C6.74267 83.4907 6.266 83.5427 5.954 83.6467C5.642 83.7507 5.42533 83.9327 5.304 84.1927C5.2 84.4354 5.148 84.8167 5.148 85.3367V90.6667H14.612V85.3367C14.612 84.8167 14.5513 84.4354 14.43 84.1927C14.326 83.9327 14.118 83.7507 13.806 83.6467C13.5113 83.5427 13.0347 83.4907 12.376 83.4907C12.324 83.4907 12.298 83.4387 12.298 83.3347C12.298 83.2307 12.324 83.1787 12.376 83.1787L13.598 83.2047C14.3953 83.2394 15.08 83.2567 15.652 83.2567C16.1373 83.2567 16.7613 83.2394 17.524 83.2047L18.85 83.1787C18.902 83.1787 18.928 83.2307 18.928 83.3347C18.928 83.4387 18.902 83.4907 18.85 83.4907C18.2087 83.4907 17.7407 83.5427 17.446 83.6467C17.1513 83.7334 16.9433 83.898 16.822 84.1407C16.718 84.3834 16.666 84.7647 16.666 85.2847V97.3227C16.666 97.8427 16.718 98.2327 16.822 98.4927C16.9433 98.7354 17.1513 98.9 17.446 98.9867C17.7407 99.0734 18.2087 99.1167 18.85 99.1167ZM33.8713 86.1947C33.8713 85.3107 33.672 84.6434 33.2733 84.1927C32.892 83.7247 32.32 83.4907 31.5573 83.4907C31.5053 83.4907 31.4793 83.4387 31.4793 83.3347C31.4793 83.2307 31.5053 83.1787 31.5573 83.1787L32.7273 83.2047C33.3513 83.2394 33.8453 83.2567 34.2093 83.2567C34.5213 83.2567 34.972 83.2394 35.5613 83.2047L36.6793 83.1787C36.714 83.1787 36.7313 83.2307 36.7313 83.3347C36.7313 83.4387 36.714 83.4907 36.6793 83.4907C35.2753 83.4907 34.5733 84.392 34.5733 86.1947V93.5267C34.5733 95.468 34.0013 96.9934 32.8573 98.1027C31.7306 99.212 30.2226 99.7667 28.3333 99.7667C27.0506 99.7667 25.924 99.524 24.9533 99.0387C23.9826 98.536 23.2286 97.8254 22.6913 96.9067C22.154 95.9707 21.8853 94.8787 21.8853 93.6307V85.2847C21.8853 84.7647 21.8333 84.3834 21.7293 84.1407C21.6253 83.898 21.426 83.7334 21.1313 83.6467C20.854 83.5427 20.4033 83.4907 19.7793 83.4907C19.7273 83.4907 19.7013 83.4387 19.7013 83.3347C19.7013 83.2307 19.7273 83.1787 19.7793 83.1787L21.0793 83.2047C21.842 83.2394 22.4486 83.2567 22.8993 83.2567C23.3846 83.2567 24.0086 83.2394 24.7713 83.2047L26.0193 83.1787C26.0713 83.1787 26.0973 83.2307 26.0973 83.3347C26.0973 83.4387 26.0713 83.4907 26.0193 83.4907C25.4126 83.4907 24.962 83.5427 24.6673 83.6467C24.39 83.7507 24.1993 83.9327 24.0953 84.1927C23.9913 84.4354 23.9393 84.8167 23.9393 85.3367V92.7207C23.9393 94.766 24.3813 96.3174 25.2653 97.3747C26.1666 98.4147 27.4233 98.9347 29.0353 98.9347C30.5433 98.9347 31.722 98.4667 32.5713 97.5307C33.438 96.5774 33.8713 95.2514 33.8713 93.5527V86.1947ZM44.4844 99.5327C43.9644 99.5327 43.3664 99.5067 42.6904 99.4547C42.4304 99.4374 42.1097 99.42 41.7284 99.4027C41.347 99.3854 40.9224 99.3767 40.4544 99.3767L38.6344 99.4027C38.305 99.42 37.8544 99.4287 37.2824 99.4287C37.2477 99.4287 37.2304 99.3767 37.2304 99.2727C37.2304 99.1687 37.2477 99.1167 37.2824 99.1167C37.9064 99.1167 38.3657 99.0734 38.6604 98.9867C38.955 98.9 39.1544 98.7354 39.2584 98.4927C39.3624 98.2327 39.4144 97.8427 39.4144 97.3227V85.2847C39.4144 84.7647 39.3624 84.3834 39.2584 84.1407C39.1544 83.898 38.955 83.7334 38.6604 83.6467C38.383 83.5427 37.941 83.4907 37.3344 83.4907C37.2824 83.4907 37.2564 83.4387 37.2564 83.3347C37.2564 83.2307 37.2824 83.1787 37.3344 83.1787L38.6344 83.2047C39.397 83.2394 40.0037 83.2567 40.4544 83.2567C41.113 83.2567 41.7804 83.2307 42.4564 83.1787C43.2884 83.144 43.843 83.1267 44.1204 83.1267C45.9057 83.1267 47.4917 83.4734 48.8784 84.1667C50.265 84.86 51.3397 85.8047 52.1024 87.0007C52.865 88.1967 53.2464 89.54 53.2464 91.0307C53.2464 92.712 52.8477 94.2027 52.0504 95.5027C51.2704 96.7854 50.213 97.782 48.8784 98.4927C47.5437 99.186 46.079 99.5327 44.4844 99.5327ZM44.2244 99.0647C45.5244 99.0647 46.6684 98.7787 47.6564 98.2067C48.6617 97.6174 49.4417 96.768 49.9964 95.6587C50.5684 94.532 50.8544 93.18 50.8544 91.6027C50.8544 90.0947 50.5857 88.734 50.0484 87.5207C49.5284 86.29 48.7744 85.328 47.7864 84.6347C46.8157 83.924 45.6804 83.5687 44.3804 83.5687C43.635 83.5687 43.063 83.612 42.6644 83.6987C42.2657 83.7854 41.971 83.9587 41.7804 84.2187C41.5897 84.4614 41.4944 84.834 41.4944 85.3367V97.0367C41.4944 97.782 41.6764 98.3107 42.0404 98.6227C42.4217 98.9174 43.1497 99.0647 44.2244 99.0647ZM57.7519 86.0907C57.7519 86.7494 57.9166 87.33 58.2459 87.8327C58.5752 88.318 58.9739 88.7427 59.4419 89.1067C59.9099 89.4534 60.5599 89.878 61.3919 90.3807C62.2586 90.918 62.9432 91.386 63.4459 91.7847C63.9659 92.166 64.4079 92.6427 64.7719 93.2147C65.1359 93.7867 65.3179 94.4627 65.3179 95.2427C65.3179 96.092 65.0926 96.8634 64.6419 97.5567C64.2086 98.2327 63.5759 98.77 62.7439 99.1687C61.9292 99.55 60.9759 99.7407 59.8839 99.7407C59.1906 99.7407 58.5059 99.654 57.8299 99.4807C57.1539 99.3247 56.5646 99.0907 56.0619 98.7787C55.9752 98.7267 55.9146 98.666 55.8799 98.5967C55.8452 98.5274 55.8279 98.4234 55.8279 98.2847L55.5679 94.5667C55.5506 94.4974 55.5852 94.454 55.6719 94.4367C55.7759 94.4194 55.8366 94.4454 55.8539 94.5147C56.2699 95.832 56.8506 96.95 57.5959 97.8687C58.3412 98.7874 59.3119 99.2467 60.5079 99.2467C61.3226 99.2467 61.9986 99.03 62.5359 98.5967C63.0906 98.146 63.3679 97.418 63.3679 96.4127C63.3679 95.65 63.1946 94.9827 62.8479 94.4107C62.5012 93.8387 62.0766 93.362 61.5739 92.9807C61.0886 92.582 60.4299 92.1314 59.5979 91.6287C58.7832 91.1087 58.1332 90.6667 57.6479 90.3027C57.1799 89.9214 56.7812 89.462 56.4519 88.9247C56.1226 88.37 55.9579 87.7287 55.9579 87.0007C55.9579 86.1167 56.1919 85.3627 56.6599 84.7387C57.1452 84.1147 57.7692 83.6554 58.5319 83.3607C59.3119 83.0487 60.1266 82.8927 60.9759 82.8927C62.1372 82.8927 63.1859 83.092 64.1219 83.4907C64.3819 83.5947 64.5119 83.7507 64.5119 83.9587L64.6419 87.2087C64.6419 87.278 64.5986 87.3214 64.5119 87.3387C64.4252 87.356 64.3732 87.33 64.3559 87.2607C64.1652 86.3247 63.7579 85.4407 63.1339 84.6087C62.5099 83.7594 61.6259 83.3347 60.4819 83.3347C59.6152 83.3347 58.9392 83.5947 58.4539 84.1147C57.9859 84.6347 57.7519 85.2934 57.7519 86.0907ZM75.4585 99.7407C73.8465 99.7407 72.4078 99.368 71.1425 98.6227C69.8945 97.86 68.9238 96.8374 68.2305 95.5547C67.5545 94.2547 67.2165 92.842 67.2165 91.3167C67.2165 89.5314 67.6672 88.006 68.5685 86.7407C69.4698 85.458 70.6225 84.496 72.0265 83.8547C73.4478 83.2134 74.8952 82.8927 76.3685 82.8927C78.0152 82.8927 79.4625 83.2827 80.7105 84.0627C81.9585 84.8254 82.9118 85.8394 83.5705 87.1047C84.2465 88.37 84.5845 89.7134 84.5845 91.1347C84.5845 92.712 84.1685 94.1594 83.3365 95.4767C82.5045 96.794 81.3865 97.834 79.9825 98.5967C78.5958 99.3594 77.0878 99.7407 75.4585 99.7407ZM76.3685 99.1687C77.4778 99.1687 78.4745 98.8827 79.3585 98.3107C80.2425 97.7387 80.9358 96.9067 81.4385 95.8147C81.9585 94.7054 82.2185 93.388 82.2185 91.8627C82.2185 90.2507 81.9325 88.812 81.3605 87.5467C80.8058 86.2814 79.9998 85.2934 78.9425 84.5827C77.9025 83.872 76.6892 83.5167 75.3025 83.5167C73.4998 83.5167 72.0958 84.132 71.0905 85.3627C70.0852 86.576 69.5825 88.2574 69.5825 90.4067C69.5825 92.0534 69.8685 93.544 70.4405 94.8787C71.0125 96.2134 71.8098 97.262 72.8325 98.0247C73.8725 98.7874 75.0512 99.1687 76.3685 99.1687ZM103.529 83.1787C103.581 83.1787 103.607 83.2307 103.607 83.3347C103.607 83.4387 103.581 83.4907 103.529 83.4907C102.107 83.4907 101.397 84.392 101.397 86.1947V99.7667C101.397 99.8014 101.353 99.8274 101.267 99.8447C101.197 99.862 101.145 99.8534 101.111 99.8187L88.9167 85.3627V96.4387C88.9167 97.3574 89.0814 98.0334 89.4107 98.4667C89.7574 98.9 90.2774 99.1167 90.9707 99.1167C91.0227 99.1167 91.0487 99.1687 91.0487 99.2727C91.0487 99.3767 91.0227 99.4287 90.9707 99.4287C90.5201 99.4287 90.1734 99.42 89.9307 99.4027L88.6047 99.3767L87.2007 99.4027C86.9407 99.42 86.5594 99.4287 86.0567 99.4287C86.0221 99.4287 86.0047 99.3767 86.0047 99.2727C86.0047 99.1687 86.0221 99.1167 86.0567 99.1167C86.8021 99.1167 87.3481 98.9 87.6947 98.4667C88.0587 98.0334 88.2407 97.3574 88.2407 96.4387V84.6347C87.4781 83.872 86.7241 83.4907 85.9787 83.4907C85.9267 83.4907 85.9007 83.4387 85.9007 83.3347C85.9007 83.2307 85.9267 83.1787 85.9787 83.1787L86.9927 83.2047C87.2007 83.222 87.4954 83.2307 87.8767 83.2307L89.2287 83.2047C89.3847 83.1874 89.5841 83.1787 89.8267 83.1787C89.9654 83.1787 90.0607 83.2134 90.1127 83.2827C90.1821 83.3347 90.2861 83.4647 90.4247 83.6727C90.5807 83.9154 90.7974 84.2014 91.0747 84.5307L100.747 96.2047V86.1947C100.747 85.276 100.582 84.6 100.253 84.1667C99.9234 83.716 99.4121 83.4907 98.7187 83.4907C98.6841 83.4907 98.6667 83.4387 98.6667 83.3347C98.6667 83.2307 98.6841 83.1787 98.7187 83.1787L99.7587 83.2047C100.279 83.2394 100.721 83.2567 101.085 83.2567C101.397 83.2567 101.847 83.2394 102.437 83.2047L103.529 83.1787ZM126.561 99.1167C126.595 99.1167 126.613 99.1687 126.613 99.2727C126.613 99.3767 126.595 99.4287 126.561 99.4287H122.791C122.375 99.4287 121.586 98.692 120.425 97.2187C119.281 95.728 117.911 93.6914 116.317 91.1087C115.918 91.1954 115.537 91.2387 115.173 91.2387C114.843 91.2387 114.419 91.2214 113.899 91.1867V97.3227C113.899 97.8427 113.951 98.2327 114.055 98.4927C114.159 98.7354 114.349 98.9 114.627 98.9867C114.921 99.0734 115.381 99.1167 116.005 99.1167C116.057 99.1167 116.083 99.1687 116.083 99.2727C116.083 99.3767 116.057 99.4287 116.005 99.4287C115.467 99.4287 115.043 99.42 114.731 99.4027L112.859 99.3767L111.039 99.4027C110.709 99.42 110.267 99.4287 109.713 99.4287C109.661 99.4287 109.635 99.3767 109.635 99.2727C109.635 99.1687 109.661 99.1167 109.713 99.1167C110.337 99.1167 110.796 99.0734 111.091 98.9867C111.385 98.9 111.585 98.7354 111.689 98.4927C111.793 98.2327 111.845 97.8427 111.845 97.3227V85.2847C111.845 84.7647 111.793 84.3834 111.689 84.1407C111.585 83.898 111.385 83.7334 111.091 83.6467C110.813 83.5427 110.363 83.4907 109.739 83.4907C109.704 83.4907 109.687 83.4387 109.687 83.3347C109.687 83.2307 109.704 83.1787 109.739 83.1787L111.039 83.2047C111.801 83.2394 112.408 83.2567 112.859 83.2567C113.171 83.2567 113.465 83.248 113.743 83.2307C114.02 83.2134 114.263 83.196 114.471 83.1787C115.043 83.1267 115.58 83.1007 116.083 83.1007C117.556 83.1007 118.691 83.3954 119.489 83.9847C120.286 84.5567 120.685 85.354 120.685 86.3767C120.685 87.1914 120.442 87.9627 119.957 88.6907C119.471 89.4187 118.839 90.008 118.059 90.4587C119.515 92.66 120.728 94.3847 121.699 95.6327C122.687 96.8634 123.562 97.756 124.325 98.3107C125.087 98.848 125.833 99.1167 126.561 99.1167ZM113.899 90.5107C114.557 90.58 115.069 90.6147 115.433 90.6147C116.542 90.6147 117.331 90.372 117.799 89.8867C118.284 89.384 118.527 88.526 118.527 87.3127C118.527 85.9434 118.267 84.9727 117.747 84.4007C117.227 83.8287 116.507 83.5427 115.589 83.5427C115.138 83.5427 114.791 83.586 114.549 83.6727C114.323 83.7594 114.159 83.9327 114.055 84.1927C113.951 84.4354 113.899 84.8167 113.899 85.3367V90.5107ZM130.92 97.3227C130.92 97.8427 130.972 98.2327 131.076 98.4927C131.18 98.7354 131.371 98.9 131.648 98.9867C131.943 99.0734 132.402 99.1167 133.026 99.1167C133.061 99.1167 133.078 99.1687 133.078 99.2727C133.078 99.3767 133.061 99.4287 133.026 99.4287C132.471 99.4287 132.038 99.42 131.726 99.4027L129.854 99.3767L128.034 99.4027C127.705 99.42 127.254 99.4287 126.682 99.4287C126.647 99.4287 126.63 99.3767 126.63 99.2727C126.63 99.1687 126.647 99.1167 126.682 99.1167C127.306 99.1167 127.765 99.0734 128.06 98.9867C128.355 98.9 128.554 98.7354 128.658 98.4927C128.762 98.2327 128.814 97.8427 128.814 97.3227V85.2847C128.814 84.7647 128.762 84.3834 128.658 84.1407C128.554 83.898 128.355 83.7334 128.06 83.6467C127.765 83.5427 127.306 83.4907 126.682 83.4907C126.647 83.4907 126.63 83.4387 126.63 83.3347C126.63 83.2307 126.647 83.1787 126.682 83.1787L128.034 83.2047C128.797 83.2394 129.403 83.2567 129.854 83.2567C130.357 83.2567 130.989 83.2394 131.752 83.2047L133.026 83.1787C133.061 83.1787 133.078 83.2307 133.078 83.3347C133.078 83.4387 133.061 83.4907 133.026 83.4907C132.419 83.4907 131.969 83.5427 131.674 83.6467C131.379 83.7507 131.18 83.9327 131.076 84.1927C130.972 84.4354 130.92 84.8167 130.92 85.3367V97.3227ZM150.809 83.1787C150.861 83.1787 150.887 83.2307 150.887 83.3347C150.887 83.4387 150.861 83.4907 150.809 83.4907C149.561 83.4907 148.625 84.2794 148.001 85.8567L142.697 99.4027C142.68 99.472 142.584 99.5067 142.411 99.5067C142.238 99.5067 142.142 99.472 142.125 99.4027L135.599 85.3367C135.287 84.678 134.966 84.21 134.637 83.9327C134.325 83.638 133.935 83.4907 133.467 83.4907C133.415 83.4907 133.389 83.4387 133.389 83.3347C133.389 83.2307 133.415 83.1787 133.467 83.1787L134.273 83.2047C134.724 83.2394 135.148 83.2567 135.547 83.2567C136.5 83.2567 137.41 83.2394 138.277 83.2047C138.554 83.1874 138.91 83.1787 139.343 83.1787C139.395 83.1787 139.421 83.2307 139.421 83.3347C139.421 83.4387 139.395 83.4907 139.343 83.4907C138.268 83.4907 137.731 83.8287 137.731 84.5047C137.731 84.7474 137.809 85.0507 137.965 85.4147L143.113 96.5947L147.377 85.7527C147.516 85.3714 147.585 85.042 147.585 84.7647C147.585 83.9154 146.926 83.4907 145.609 83.4907C145.557 83.4907 145.531 83.4387 145.531 83.3347C145.531 83.2307 145.557 83.1787 145.609 83.1787L146.779 83.2047C147.403 83.2394 147.975 83.2567 148.495 83.2567C148.859 83.2567 149.266 83.2394 149.717 83.2047L150.809 83.1787ZM162.459 95.4767C162.459 95.442 162.493 95.4247 162.563 95.4247C162.615 95.4247 162.658 95.442 162.693 95.4767C162.745 95.494 162.771 95.5114 162.771 95.5287C162.597 96.7767 162.511 97.9467 162.511 99.0387C162.511 99.1774 162.485 99.2814 162.433 99.3507C162.381 99.4027 162.277 99.4287 162.121 99.4287H151.045C150.993 99.4287 150.967 99.3767 150.967 99.2727C150.967 99.1687 150.993 99.1167 151.045 99.1167C151.669 99.1167 152.119 99.0734 152.397 98.9867C152.674 98.9 152.865 98.7354 152.969 98.4927C153.073 98.2327 153.125 97.8427 153.125 97.3227V85.2847C153.125 84.7647 153.073 84.3834 152.969 84.1407C152.865 83.898 152.665 83.7334 152.371 83.6467C152.093 83.5427 151.651 83.4907 151.045 83.4907C150.993 83.4907 150.967 83.4387 150.967 83.3347C150.967 83.2307 150.993 83.1787 151.045 83.1787H161.653C161.826 83.1787 161.913 83.2567 161.913 83.4127L161.965 86.6887C161.965 86.7407 161.913 86.7754 161.809 86.7927C161.722 86.7927 161.67 86.7667 161.653 86.7147C161.531 85.7614 161.193 85.042 160.639 84.5567C160.084 84.054 159.356 83.8027 158.455 83.8027H157.129C156.366 83.8027 155.855 83.9154 155.595 84.1407C155.335 84.3487 155.205 84.7647 155.205 85.3887V90.6667H158.065C158.949 90.6667 159.599 90.5194 160.015 90.2247C160.431 89.9127 160.639 89.436 160.639 88.7947C160.639 88.76 160.682 88.7427 160.769 88.7427C160.873 88.7427 160.925 88.76 160.925 88.7947L160.899 90.9787L160.925 92.1487C160.959 92.7034 160.977 93.1367 160.977 93.4487C160.977 93.4834 160.925 93.5007 160.821 93.5007C160.717 93.5007 160.665 93.4834 160.665 93.4487C160.665 92.7034 160.448 92.1574 160.015 91.8107C159.599 91.4467 158.923 91.2647 157.987 91.2647H155.205V97.2187C155.205 97.8427 155.317 98.2674 155.543 98.4927C155.785 98.718 156.262 98.8307 156.973 98.8307H158.663C159.651 98.8307 160.465 98.5447 161.107 97.9727C161.765 97.3834 162.216 96.5514 162.459 95.4767ZM181.204 99.1167C181.239 99.1167 181.256 99.1687 181.256 99.2727C181.256 99.3767 181.239 99.4287 181.204 99.4287H177.434C177.018 99.4287 176.23 98.692 175.068 97.2187C173.924 95.728 172.555 93.6914 170.96 91.1087C170.562 91.1954 170.18 91.2387 169.816 91.2387C169.487 91.2387 169.062 91.2214 168.542 91.1867V97.3227C168.542 97.8427 168.594 98.2327 168.698 98.4927C168.802 98.7354 168.993 98.9 169.27 98.9867C169.565 99.0734 170.024 99.1167 170.648 99.1167C170.7 99.1167 170.726 99.1687 170.726 99.2727C170.726 99.3767 170.7 99.4287 170.648 99.4287C170.111 99.4287 169.686 99.42 169.374 99.4027L167.502 99.3767L165.682 99.4027C165.353 99.42 164.911 99.4287 164.356 99.4287C164.304 99.4287 164.278 99.3767 164.278 99.2727C164.278 99.1687 164.304 99.1167 164.356 99.1167C164.98 99.1167 165.44 99.0734 165.734 98.9867C166.029 98.9 166.228 98.7354 166.332 98.4927C166.436 98.2327 166.488 97.8427 166.488 97.3227V85.2847C166.488 84.7647 166.436 84.3834 166.332 84.1407C166.228 83.898 166.029 83.7334 165.734 83.6467C165.457 83.5427 165.006 83.4907 164.382 83.4907C164.348 83.4907 164.33 83.4387 164.33 83.3347C164.33 83.2307 164.348 83.1787 164.382 83.1787L165.682 83.2047C166.445 83.2394 167.052 83.2567 167.502 83.2567C167.814 83.2567 168.109 83.248 168.386 83.2307C168.664 83.2134 168.906 83.196 169.114 83.1787C169.686 83.1267 170.224 83.1007 170.726 83.1007C172.2 83.1007 173.335 83.3954 174.132 83.9847C174.93 84.5567 175.328 85.354 175.328 86.3767C175.328 87.1914 175.086 87.9627 174.6 88.6907C174.115 89.4187 173.482 90.008 172.702 90.4587C174.158 92.66 175.372 94.3847 176.342 95.6327C177.33 96.8634 178.206 97.756 178.968 98.3107C179.731 98.848 180.476 99.1167 181.204 99.1167ZM168.542 90.5107C169.201 90.58 169.712 90.6147 170.076 90.6147C171.186 90.6147 171.974 90.372 172.442 89.8867C172.928 89.384 173.17 88.526 173.17 87.3127C173.17 85.9434 172.91 84.9727 172.39 84.4007C171.87 83.8287 171.151 83.5427 170.232 83.5427C169.782 83.5427 169.435 83.586 169.192 83.6727C168.967 83.7594 168.802 83.9327 168.698 84.1927C168.594 84.4354 168.542 84.8167 168.542 85.3367V90.5107Z" fill="black"/>
</svg>
